<?xml version="1.0" standalone="no"?>
<!DOCTYPE svg PUBLIC "-//W3C//DTD SVG 20010904//EN"
 "http://www.w3.org/TR/2001/REC-SVG-20010904/DTD/svg10.dtd">
<svg version="1.0" xmlns="http://www.w3.org/2000/svg"
 width="1024.000000pt" height="1024.000000pt" viewBox="0 0 1024.000000 1024.000000"
 preserveAspectRatio="xMidYMid meet">
<metadata>
Created by potrace 1.14, written by Peter Selinger 2001-2017
</metadata>
<g transform="translate(0.000000,1024.000000) scale(0.100000,-0.100000)"
fill="#000000" stroke="none">
<path d="M5560 8604 c0 -6 -10 -10 -22 -10 -13 1 -27 0 -33 -3 -5 -3 -21 -6
-35 -7 -39 -3 -142 -15 -170 -20 -14 -2 -54 -7 -90 -10 -36 -3 -76 -7 -90 -9
-32 -5 -78 -10 -259 -31 -25 -3 -57 -7 -71 -9 -14 -1 -56 -6 -95 -10 -38 -4
-83 -9 -100 -11 -53 -8 -99 -14 -155 -19 -30 -2 -66 -7 -80 -10 -14 -3 -52 -7
-85 -11 -33 -3 -71 -7 -85 -8 -14 -2 -54 -7 -90 -11 -36 -4 -73 -9 -84 -11
-10 -2 -36 -4 -57 -6 -22 -1 -39 -4 -39 -7 0 -4 -19 -6 -42 -6 -44 -1 -173
-12 -173 -15 0 -1 -18 -4 -40 -5 -22 -2 -40 -4 -40 -5 0 -2 -19 -4 -115 -14
-36 -3 -74 -8 -85 -10 -11 -2 -51 -7 -90 -11 -38 -4 -81 -9 -95 -10 -75 -9
-121 -14 -170 -20 -30 -3 -89 -10 -130 -15 -41 -5 -100 -12 -130 -15 -30 -3
-62 -7 -70 -10 -8 -2 -47 -6 -85 -9 -39 -4 -80 -8 -90 -10 -31 -6 -145 -19
-195 -22 -25 -2 -45 -4 -45 -5 0 -1 -13 -3 -30 -4 -85 -9 -132 -15 -150 -19
-11 -2 -54 -7 -95 -11 -41 -4 -84 -9 -95 -11 -11 -2 -47 -7 -80 -10 -33 -3
-71 -7 -85 -9 -14 -1 -54 -6 -90 -9 -36 -4 -76 -9 -90 -11 -14 -2 -52 -7 -85
-10 -33 -4 -63 -9 -67 -11 -4 -3 -5 -19 -3 -37 4 -31 9 -117 20 -367 4 -69 8
-168 11 -220 2 -52 6 -144 9 -203 2 -59 7 -112 10 -117 4 -6 1 -10 -5 -10 -6
0 -8 -5 -4 -11 7 -11 11 -73 16 -256 2 -46 7 -83 11 -83 4 0 3 -8 -2 -19 -6
-10 -8 -21 -5 -23 2 -3 7 -59 9 -124 5 -140 13 -299 20 -439 3 -55 8 -154 10
-220 3 -66 7 -165 10 -220 2 -55 7 -145 9 -200 3 -55 8 -165 12 -245 4 -80 8
-187 8 -237 1 -51 3 -93 6 -93 3 0 6 -39 7 -88 0 -48 4 -141 7 -207 3 -66 8
-167 11 -225 3 -58 7 -154 10 -215 3 -60 7 -159 10 -220 3 -60 7 -159 10 -220
12 -253 16 -353 18 -397 2 -38 7 -51 27 -65 14 -9 27 -19 30 -23 3 -3 48 -39
100 -79 52 -41 100 -80 106 -88 6 -7 16 -13 22 -13 6 0 12 -4 14 -8 2 -5 46
-42 98 -82 52 -41 100 -79 106 -85 6 -5 26 -21 44 -35 18 -14 50 -38 71 -55
20 -16 52 -41 70 -55 18 -14 37 -30 43 -35 6 -6 38 -31 72 -56 71 -54 100 -78
126 -101 10 -10 20 -18 23 -18 3 0 99 -75 179 -141 10 -8 106 -84 221 -174 21
-16 77 -61 124 -98 47 -37 99 -78 115 -90 15 -12 45 -35 65 -52 21 -16 53 -42
72 -57 150 -118 308 -244 329 -262 14 -12 41 -32 60 -46 19 -13 37 -27 40 -30
3 -3 41 -34 85 -68 44 -35 98 -77 119 -95 22 -18 54 -42 73 -55 18 -12 33 -26
33 -31 0 -4 8 -12 19 -17 10 -5 36 -22 56 -39 21 -16 88 -70 149 -118 61 -48
129 -102 150 -120 49 -40 66 -50 66 -40 0 8 85 48 102 48 4 0 13 6 19 12 7 7
18 13 24 13 6 0 35 11 63 25 29 14 58 25 65 25 7 0 17 4 22 9 6 5 39 21 75 36
36 15 85 36 110 47 25 11 59 26 75 33 17 7 60 27 98 44 37 17 70 31 72 31 3 0
28 11 57 25 28 14 58 25 65 25 7 0 13 4 13 8 0 5 6 9 13 9 10 1 178 73 345
149 29 13 54 24 57 24 2 0 32 13 67 30 58 26 115 51 128 55 3 1 21 9 40 17 65
30 173 77 190 83 7 3 73 32 146 65 35 17 67 30 69 30 2 0 35 14 72 31 36 17
150 66 252 110 102 44 203 89 226 99 22 10 112 49 200 88 88 38 178 78 200 87
22 10 42 19 45 20 11 4 60 25 145 63 130 57 382 167 515 224 63 27 122 53 130
57 8 4 71 32 140 61 69 30 128 59 132 64 4 6 8 7 8 2 0 -4 11 -1 25 8 14 9 25
14 25 11 0 -3 14 1 30 10 22 11 30 23 31 43 0 15 2 36 5 47 2 11 6 56 10 100
7 92 9 112 19 215 4 41 9 96 11 123 8 100 20 233 29 327 14 153 18 189 20 220
2 19 6 64 9 100 3 36 8 94 11 130 3 36 8 83 10 105 3 22 7 72 10 110 4 68 7
106 20 245 12 128 15 156 20 220 3 36 8 84 10 107 12 116 18 193 19 240 1 29
3 53 6 53 3 0 5 12 6 28 1 35 14 198 19 237 2 17 6 66 10 110 3 44 8 94 10
110 2 17 7 64 10 105 7 91 13 168 20 238 9 90 14 155 20 222 3 36 7 85 9 110
15 159 22 238 31 340 3 41 8 93 11 115 2 22 7 72 9 110 3 39 7 90 9 115 3 25
7 74 10 110 4 36 9 94 13 130 3 36 7 81 8 100 3 37 13 136 20 205 2 22 7 54
10 72 6 32 3 35 -52 48 -10 3 -38 9 -63 16 -25 6 -52 12 -60 14 -8 2 -62 15
-120 30 -131 33 -99 25 -345 84 -115 28 -226 55 -245 61 -48 13 -160 40 -190
46 -14 3 -43 10 -65 16 -46 13 -52 14 -85 21 -14 3 -54 13 -90 22 -36 9 -72
18 -80 20 -22 4 -99 24 -140 35 -41 11 -362 90 -392 95 -20 4 -35 8 -98 25
-40 11 -235 59 -265 65 -11 3 -67 16 -125 31 -58 14 -112 27 -120 29 -8 2 -70
17 -137 34 -67 17 -130 32 -140 34 -10 1 -24 6 -30 10 -7 5 -13 6 -13 3 0 -2
-15 0 -32 5 -18 5 -51 14 -73 19 -34 7 -96 23 -190 47 -11 2 -29 6 -40 8 -11
2 -21 4 -22 5 -3 3 -8 4 -48 14 -16 4 -57 14 -90 22 -33 9 -73 18 -90 21 -16
2 -31 9 -33 14 -5 14 -52 11 -52 -3 0 -9 -4 -8 -10 2 -5 8 -10 10 -10 4z"/>
</g>
</svg>
